/* XPM */
static char *b8edc2442df44dcdadf5081b7a2833ff0ONq0bxEeNXVihUe[] = {
/* columns rows colors chars-per-pixel */
"32 32 173 2 ",
"   c None",
".  c #25131A",
"X  c #1F3735",
"o  c #3D253B",
"O  c #3F293A",
"+  c #203634",
"@  c #223935",
"#  c #253E3E",
"$  c #402B3C",
"%  c #3E2F43",
"&  c #3C3048",
"*  c #3A3951",
"=  c #402D40",
"-  c #463347",
";  c #354151",
":  c #395857",
">  c #34545C",
",  c #3A565B",
"<  c #335E6C",
"1  c #325967",
"2  c #374C69",
"3  c #396568",
"4  c #33697B",
"5  c #326373",
"6  c #496057",
"7  c #536555",
"8  c #5B6A52",
"9  c #404960",
"0  c #4C5D77",
"q  c #505C72",
"w  c #585368",
"e  c #537266",
"r  c #557668",
"t  c #4B6F7C",
"y  c #416270",
"u  c #4C7874",
"i  c #647863",
"p  c #666272",
"a  c #669156",
"s  c #75A85B",
"d  c #578477",
"f  c #6D8A79",
"g  c #858F1E",
"h  c #86921F",
"j  c #8A961F",
"k  c #859323",
"l  c #889724",
"z  c #889826",
"x  c #80952F",
"c  c #809631",
"v  c #94B26D",
"b  c #2F6D86",
"n  c #336D88",
"m  c #347484",
"M  c #3E7084",
"N  c #2F7B99",
"B  c #337C97",
"V  c #367994",
"C  c #447E86",
"Z  c #517786",
"A  c #457E92",
"S  c #39808F",
"D  c #3D8A95",
"F  c #378A9D",
"G  c #398698",
"H  c #2F82A4",
"J  c #328AAB",
"K  c #3E8DAC",
"L  c #378AA4",
"P  c #3A99AF",
"I  c #388FB3",
"U  c #3B99B4",
"Y  c #399BBF",
"T  c #3DA2BB",
"R  c #3DA9BD",
"E  c #5C8389",
"W  c #43839F",
"Q  c #4F8196",
"!  c #588D9C",
"~  c #4E999A",
"^  c #519695",
"/  c #6F918D",
"(  c #608497",
")  c #6C949C",
"_  c #558FAF",
"`  c #4C96AC",
"'  c #4593B2",
"]  c #439ABC",
"[  c #5395B0",
"{  c #6796A3",
"}  c #699EB3",
"|  c #47A6AE",
" . c #5DBEA4",
".. c #4AA5BA",
"X. c #67A3B6",
"o. c #70A0B4",
"O. c #399DC4",
"+. c #39A2C4",
"@. c #3BAFCF",
"#. c #3EAEDD",
"$. c #3EB5D1",
"%. c #3DB2DD",
"&. c #3CBAEC",
"*. c #439FC3",
"=. c #41ABC9",
"-. c #48B5CC",
";. c #52BAC6",
":. c #49B1D9",
">. c #48B5D9",
",. c #66A9C6",
"<. c #79AEC3",
"1. c #68B8C9",
"2. c #71BDCB",
"3. c #65B1D0",
"4. c #79B3D8",
"5. c #43BBE4",
"6. c #44C4DA",
"7. c #53C9D5",
"8. c #44C3E9",
"9. c #57C4EA",
"0. c #45D3EC",
"q. c #4BD3EE",
"w. c #5AD4ED",
"e. c #6EC7EE",
"r. c #6CD3E9",
"t. c #75D3E9",
"y. c #5CE6EE",
"u. c #67E5ED",
"i. c #85AFA9",
"p. c #86B7AF",
"a. c #82AEBE",
"s. c #9EC6B5",
"d. c #A2CDB3",
"f. c #A2D0B8",
"g. c #85BDCD",
"h. c #85BEEE",
"j. c #8CC9DC",
"k. c #93C9D7",
"l. c #98CEDB",
"z. c #98D0DE",
"x. c #8CC7C9",
"c. c #B3C6CB",
"v. c #B4CBD7",
"b. c #8CC1EE",
"n. c #95C6EE",
"m. c #8AD9EC",
"M. c #91D2E3",
"N. c #9CD3E0",
"B. c #92DEEE",
"V. c #9BDBE6",
"C. c #A1CCED",
"Z. c #A5D9E9",
"A. c #A8DBEC",
"S. c #AFDEE0",
"D. c #B1DFEC",
"F. c #B8DEEC",
"G. c #8DE0EE",
"H. c #9CE3EA",
"J. c #AAE3ED",
"K. c #A9EAEC",
"L. c #A5E5EB",
"P. c #B5E4ED",
"I. c #BAE6ED",
"U. c #B5EAEC",
"Y. c #BEEAED",
"T. c #ABF0EE",
"R. c #BEF0EE",
"E. c #C0D0D3",
"W. c #C4EDED",
"Q. c #D6E8ED",
"!. c #ECEAEC",
"~. c #E3EDEE",
"^. c #EFF0EE",
/* pixels */
"    . . . . . . . . . . . . . . . . . . . . . . . . . . . .     ",
"  . + j j j j + j j j j j j X j j j j j X j j X X X j j j j .   ",
". X j l j j j j X j j j j X j j j j j X j j j h @ j j j j j h . ",
". j j j j j j j j X j j j X j j j j j @ j j j h @ j j j j j g . ",
". j j j j j j j j X X ; E f.f.d.d.v k X X j h X @ j j j j j h . ",
". j j j j j j j j o w o.[ R | : 3 4 V * o o o o @ j j j j j g . ",
". + l j j l j j i p.) < N R D : 3 F m b e 8 8 o $ j j j j j g . ",
". + + + + + $ 8 f ) y M B H F 4 F L ` S...e 8 8 $ j j j j h X . ",
". + j j X o 8 f x.( 4.b._ N N b W v.^.W.7.L e 8 o $ j j h @ g . ",
". l j j j o 8 p.z.C.b.b._ b } c.E.~.^.Y.y.7.C 8 o o o + @ j g . ",
". j j j j o u 1.C.n.b.3.A N.Z.Q.~.!.^.I.0.u.s.- o o o @ j j g . ",
". @ j j X o u J 4.n.e.j.k.J.A.A.D.~.~.P.0.w.Y.p o o o + j j g . ",
". j @ @ X O 2 J ] -.q.J.J.J.A.A.A.D.F.A.w.B.V.0 o $ o @ j j h . ",
". j j j l & H J U -.B.J.T.K.W.A.A.A.L.M.-.m.9.:.$ j j h + @ g . ",
". j j j j x L T O.@.m.J.K.K.W.D.A.A.J.H.,.5.9.:.z l j j j h + . ",
". j j j j x U =.O.$.B.T.K.K.I.D.A.A.L.T.2.5.[ =.z j j j j j g . ",
". j j j j c ..=.+.T M.J.K.K.U.D.A.A.L.K.1.#.' *.k l j j j j g . ",
". X j j j c P +.O.B Q A.L.K.U.D.A.A.J.L.{ ' ' ' $ j j j j j g . ",
". j X X j j a H M.X.4 l.J.K.P.P.A.A.L.N.Z ' ` W 8 8 8 l j j g . ",
". j j j X o q -.t.} 4 ! J.A.J.P.A.A.A.g.n #.*.2 8 8 8 + + @ g . ",
". j j j X o i ;.q.` 5 ! J.J.K.R.P.J.A.g.J &.' O 8 8 8 @ j h + . ",
". j j j X o 8 ~ r.{ > 4 X.G.J.K.K.Z.N.,.O.>.^ o 8 8 8 j j j h . ",
". j j X + O 8 8 / t > < V 5.3.l.Z.g.<.{ S ~ 8 8 O 8 8 j j j g . ",
". j X j j l 8 8 7 , > > < %.O.V t } o.1.6.r 8 8 o O o + j g + . ",
". X j j j j j 8 8 8 6 > > B O.8.D D S | u 8 8 8 O o X X X X X . ",
". j j j j j j 8 8 8 8 7 ; 1 -.0.0. .s O 8 8 8 O j j j j j h + . ",
". j j j j j j X o o o o o $ z z z l j o $ o $ j j j j j j j g . ",
". j j j j j j X @ j h + @ z l j j h h + + + @ j j j j j j j g . ",
". j j j j j j X j j j j + j j j j h @ j j j + j j j j j j j h . ",
". X h j j j j X j j j h @ j j j j h @ j j j j @ j j j j j j g . ",
"  . X j j h X X + h g + j j j h g @ j h j g j h @ j h h h g .   ",
"    . . . . . . . . . . . . . . . . . . . . . . . . . . . .     "
};
