/* XPM */
static char *_e6943ce30d04546ece5a7c171b5ac86ATUFqOEhtrl4tQR2[] = {
/* columns rows colors chars-per-pixel */
"32 32 185 2 ",
"   c #3D253B",
".  c #3E263B",
"X  c #41293A",
"o  c #463530",
"O  c #4F3C30",
"+  c #5E3F31",
"@  c #50393F",
"#  c #523D3F",
"$  c #775E1F",
"%  c #677106",
"&  c #687106",
"*  c #5F432F",
"=  c #585023",
"-  c #594230",
";  c #634622",
":  c #6A4D22",
">  c #63452F",
",  c #655825",
"<  c #6A5529",
"1  c #755E23",
"2  c #604130",
"3  c #706321",
"4  c #766225",
"5  c #523B40",
"6  c #584247",
"7  c #594556",
"8  c #5A4558",
"9  c #614D5F",
"0  c #685458",
"q  c #645162",
"w  c #8C7A06",
"e  c #83740E",
"r  c #8B740A",
"t  c #997406",
"y  c #9F7706",
"u  c #957108",
"i  c #987308",
"p  c #A27206",
"a  c #A57606",
"s  c #A0790B",
"d  c #B07A06",
"f  c #A57E17",
"g  c #888106",
"h  c #958706",
"j  c #8C9806",
"k  c #919706",
"l  c #989806",
"z  c #999E06",
"x  c #9D9C06",
"c  c #959D0B",
"v  c #A78206",
"b  c #AE8906",
"n  c #AF8E0B",
"m  c #BD8106",
"M  c #B98706",
"N  c #BE8606",
"B  c #B0820B",
"V  c #A39306",
"C  c #A79306",
"Z  c #AC9306",
"A  c #AA9706",
"S  c #AC9706",
"D  c #A79906",
"F  c #AE9C06",
"G  c #B69106",
"H  c #B29506",
"J  c #BC9106",
"K  c #B39806",
"L  c #B79C06",
"P  c #BD950B",
"I  c #BC940C",
"U  c #BA9C0B",
"Y  c #BC9D08",
"T  c #9EA006",
"R  c #A2A306",
"E  c #ACA306",
"W  c #ABA506",
"Q  c #B2A506",
"!  c #BBAE06",
"~  c #BDAC06",
"^  c #BBB006",
"/  c #ADAF1F",
"(  c #B2AA1C",
")  c #B0AE1D",
"_  c #929A27",
"`  c #9FA228",
"'  c #A9AB26",
"]  c #C58E06",
"[  c #C09206",
"{  c #CC9C06",
"}  c #CE980F",
"|  c #CB9E0F",
" . c #C6A406",
".. c #C3A806",
"X. c #C1AD06",
"o. c #CBA906",
"O. c #C7AD0D",
"+. c #D8A607",
"@. c #D6AF06",
"#. c #C5B606",
"$. c #E4AB06",
"%. c #E0AD06",
"&. c #E5AD06",
"*. c #E8B006",
"=. c #ECB206",
"-. c #E3AF19",
";. c #E9BE1C",
":. c #CE8A2B",
">. c #C88D37",
",. c #C39733",
"<. c #D99435",
"1. c #DB9A30",
"2. c #C7B82F",
"3. c #C8BA2F",
"4. c #D1B020",
"5. c #D4B627",
"6. c #CBA132",
"7. c #E7BF29",
"8. c #E0B133",
"9. c #ECC032",
"0. c #94865E",
"q. c #998459",
"w. c #A79742",
"e. c #B7BD4A",
"r. c #BCB752",
"t. c #A29269",
"y. c #A3977A",
"u. c #B7BC63",
"i. c #B6A771",
"p. c #C1A346",
"a. c #C9BB46",
"s. c #C0BC68",
"d. c #C3B777",
"f. c #C1BE75",
"g. c #BFC356",
"h. c #BAC06D",
"j. c #EED240",
"k. c #E7D452",
"l. c #E3D354",
"z. c #E4D354",
"x. c #E7D654",
"c. c #E2D850",
"v. c #E8DC5D",
"b. c #C3C26C",
"n. c #C5C671",
"m. c #DBC070",
"M. c #DDC375",
"N. c #D5CB76",
"B. c #DCD370",
"V. c #ECD561",
"C. c #ECDE63",
"Z. c #ECD069",
"A. c #EBCF76",
"S. c #ECDE78",
"D. c #9D9186",
"F. c #9D9198",
"G. c #B8AF89",
"H. c #BDB280",
"J. c #B8AF91",
"K. c #D8C386",
"L. c #D4CE8A",
"P. c #D9CC8A",
"I. c #D7D68A",
"U. c #D5CB92",
"Y. c #D8D192",
"T. c #ECDA82",
"R. c #ECDF8B",
"E. c #ECDC9C",
"W. c #E4E382",
"Q. c #EAE48F",
"!. c #ECEA8C",
"~. c #EEE291",
"^. c #EAE79E",
"/. c #DAD6A8",
"(. c #D4D5B0",
"). c #DADBB9",
"_. c #E1DCA7",
"`. c #E0DDB3",
"'. c #ECEAA6",
"]. c #ECEABE",
"[. c #D3CDCA",
"{. c #D4CCCC",
"}. c #D7D1CB",
"|. c #D1CBD0",
" X c #ECE9E0",
/* pixels */
"5 5 5 . . . . . . . . . . . . . . . . . . . . . . . . . . . @ 5 ",
"5 5 5 . . . . . . . . . . . . . . . . . . . . . . . . . . . @ 5 ",
"5 5 . . . . . . . . . . . . . . . . @ @ @ . . . . . . . . . . @ ",
". . . . . . . . . . . . . . . . . @ @ 5 5 @ . . . . . . . . . . ",
". . . . . . . . . . . . . . < . . @ 5 5 5 5 . . . . . . . . . . ",
". . . . . . @ @ @ . . . . , n 1 . @ 5 5 5 5 . . . . . . . . . . ",
". . . . . @ @ 5 5 @ . . 3 _ /...$ @ 5 5 5 5 . . . . . . . . . . ",
". . . . @ @ 5 5 5 5 . 4 ` (.b.@.v ; @ 5 5 . . . . . . . . . . . ",
". . . . @ 5 5 5 5 # = ( ).h.c !  .i : X . . . . . . . . . . . . ",
". . . . @ 5 5 5 5 O W _.u.j / ^ R o.@.> . . . . . . . . . . . . ",
". . . . . @ 5 5 . - W w.j ) c.#.L G { * . . . . . . . @ @ . . . ",
". . . . . . . . . - x r W.v.x.N S k F * . . . . . . @ @ 5 . . . ",
". . . . . . . . . 0.x r !.C.x.m A j D q.. . . . . . @ 5 . . . . ",
". . . . . . . . . Y.x r.!.C.x.d A z V P.. . . . . . . . . . . . ",
". . . . . . . . . Y.Z N.'.S.l.p C T V P.. . . . . . . . . . . . ",
". . . . . . . . . U.b p.].S.l.p H W l L.. . . . . . . . . . . . ",
". . . . . . . . D.>.y B ].S.z.a K 3.e.I.t.. . . . . . . . . . . ",
". . . . . . @ @ J.:.f s ].S.x.J 2.^.g.a.i.. . . . . . . . . . . ",
". . . . . @ @ 5 G.<.,.u Z.S.x.J B.Q.5.P i.. . . . . . . . . . . ",
"@ . . . . @ 5 5 y.1.6.t 9.V.k.[ O.;.4.I F.. . . . . . . . . . @ ",
"5 . . . . @ 5 5 5 -.j.| =.=.7.] $.T.n.Y . . . . . . . . . . . @ ",
". . . . . @ 5 5 5 8.~.E.A.*.&.M m.`.' U . . . . . . . . . . . . ",
". . . . . . @ 5 5 0 |. Xd.% Q w f.R.[.8 . . @ @ @ @ . . . . . . ",
". . . . . . . . . . 9 {.+.g E & s.}.q . . @ @ 5 5 5 @ . . . . . ",
". . . . . . . . . . . 5 M.%.~ h K.7 . . . @ 5 5 5 5 5 . . . . . ",
". . . . . . . . . . . . + } X.e 2 . . . . @ 5 5 5 5 5 . . . . . ",
". . . . . . . . . . . . . + H.o . . . . . . @ 5 5 5 . . . . . . ",
". . . . . . . . . . . . . @ 6 . . . . . . . . . . . . . . . . . ",
"@ . . . . . . . . . . . . @ 5 . . . . . . . . . . . . . . . . @ ",
"5 @ . . . . . . . . . . . . . . . . . . . . . . . . . . . . @ @ ",
"5 5 @ . . . . . . . . . . . . . . . . . . . . . . . . . . . @ 5 ",
"5 5 5 . . . . . . . . . . . . . . . . . . . . . . . . . . . @ 5 "
};
