/* XPM */
static char *_d4df1c6fd03489fde8c388205a7e3c4XjZmW3VMhhIDMYEc[] = {
/* columns rows colors chars-per-pixel */
"32 32 255 2 ",
"   c None",
".  c #25131A",
"X  c #1F3736",
"o  c #3D253B",
"O  c #513235",
"+  c #523235",
"@  c #52383E",
"#  c #74562A",
"$  c #5C6B53",
"%  c #5E6C52",
"&  c #626E4F",
"*  c #65724E",
"=  c #6A744A",
"-  c #6B754A",
";  c #6B754C",
":  c #727846",
">  c #757944",
",  c #697554",
"<  c #6D7955",
"1  c #6B7758",
"2  c #D77C06",
"3  c #D77D06",
"4  c #88744D",
"5  c #887758",
"6  c #7D885D",
"7  c #8A961F",
"8  c #96971C",
"9  c #A7851A",
"0  c #B48913",
"q  c #BE9A13",
"w  c #BF9B13",
"e  c #B9A31C",
"r  c #82813D",
"t  c #A79726",
"y  c #A0922B",
"u  c #A69A33",
"i  c #A69C34",
"p  c #B5A425",
"a  c #B8A223",
"s  c #B5AA39",
"d  c #D78006",
"f  c #D98E06",
"g  c #D98F06",
"h  c #D88608",
"j  c #D8820E",
"k  c #D9830F",
"l  c #CC9606",
"z  c #C29E0A",
"x  c #C29F0A",
"c  c #CF9C08",
"v  c #DE9706",
"b  c #D09B06",
"n  c #D19F06",
"m  c #DE9E06",
"M  c #D88312",
"N  c #D88314",
"B  c #D9881A",
"V  c #DC911F",
"C  c #DC921F",
"Z  c #EC9506",
"A  c #EC9B06",
"S  c #EC9C07",
"D  c #E6930A",
"F  c #EF9C08",
"G  c #EC9C0F",
"H  c #E69C14",
"J  c #DBA606",
"K  c #DBA906",
"L  c #DAAB06",
"P  c #DAAC06",
"I  c #DAAD06",
"U  c #D8AE06",
"Y  c #D9AE06",
"T  c #DBA208",
"R  c #DBA508",
"E  c #DCAB08",
"W  c #DAAE0A",
"Q  c #CAB70E",
"!  c #DEB706",
"~  c #D4B00C",
"^  c #DDB208",
"/  c #DAB408",
"(  c #DBB408",
")  c #DCB408",
"_  c #DDB508",
"`  c #DAB00E",
"'  c #DBB70F",
"]  c #DCB40D",
"[  c #DDB50D",
"{  c #DEB70E",
"}  c #DDB808",
"|  c #DFBA08",
" . c #DEB90F",
".. c #C2A91B",
"X. c #D5A715",
"o. c #C9B11B",
"O. c #C4BA1E",
"+. c #DEB712",
"@. c #DDBA13",
"#. c #DFB916",
"$. c #DFB917",
"%. c #DCB91A",
"&. c #E4A006",
"*. c #E2A606",
"=. c #E1A208",
"-. c #E4A30A",
";. c #E7A608",
":. c #EEA008",
">. c #E1B206",
",. c #E6B706",
"<. c #E5BB06",
"1. c #E1BB08",
"2. c #E1BD08",
"3. c #EDBD08",
"4. c #ECA318",
"5. c #E1BD1F",
"6. c #DC9322",
"7. c #DD9826",
"8. c #DEB921",
"9. c #DEBB24",
"0. c #DEBE2A",
"q. c #DFA436",
"w. c #DDBB3C",
"e. c #DEBF3C",
"r. c #E1BF23",
"t. c #E2AA38",
"y. c #E0AB3E",
"u. c #EBB830",
"i. c #EBB937",
"p. c #E2BF38",
"a. c #E2C006",
"s. c #E9C106",
"d. c #EAC206",
"f. c #E9C706",
"g. c #E4C508",
"h. c #E5C508",
"j. c #E6C608",
"k. c #EBC708",
"l. c #EBC808",
"z. c #EAC908",
"x. c #EACB08",
"c. c #EDC808",
"v. c #EDCB08",
"b. c #E9CD08",
"n. c #EACE08",
"m. c #ECD008",
"M. c #EED008",
"N. c #EAD20F",
"B. c #E6C715",
"V. c #EAC91D",
"C. c #EFD815",
"Z. c #ECD31D",
"A. c #DAC43E",
"S. c #E6CA21",
"D. c #E7CB24",
"F. c #E1C52A",
"G. c #EBD324",
"H. c #EBD326",
"J. c #EDDA22",
"K. c #E1C530",
"L. c #E1C634",
"P. c #E1C23C",
"I. c #EEC43E",
"U. c #E2C838",
"Y. c #E3C93D",
"T. c #8A8F54",
"R. c #9B9F5C",
"E. c #B7BC47",
"W. c #9BA166",
"Q. c #B5B560",
"!. c #E2B140",
"~. c #E6B741",
"^. c #E1B044",
"/. c #E2B345",
"(. c #E1B24C",
"). c #D3C758",
"_. c #DFC45E",
"`. c #E2C741",
"'. c #E5CC42",
"]. c #E5CD43",
"[. c #E5CF43",
"{. c #E7D144",
"}. c #EED947",
"|. c #E9D44B",
" X c #E9D64D",
".X c #EAD64F",
"XX c #E3CC56",
"oX c #E4CF56",
"OX c #E6C85E",
"+X c #E6C95E",
"@X c #E7D250",
"#X c #E5D156",
"$X c #EAD750",
"%X c #E8D357",
"&X c #EED454",
"*X c #ECD850",
"=X c #ECD852",
"-X c #E5D158",
";X c #E8D758",
":X c #E9D95D",
">X c #E9D95E",
",X c #EBDC5D",
"<X c #EBDC5E",
"1X c #ECDD5E",
"2X c #ECDE5F",
"3X c #EEE051",
"4X c #EEE052",
"5X c #EEE257",
"6X c #EEE258",
"7X c #E6D165",
"8X c #EEDE61",
"9X c #EBDC66",
"0X c #E5D06D",
"qX c #EADC69",
"wX c #EADD69",
"eX c #E9DB6C",
"rX c #E4D075",
"tX c #E0DC76",
"yX c #E9DD72",
"uX c #EADD75",
"iX c #EADB78",
"pX c #E8DC79",
"aX c #E9DC7D",
"sX c #EEE268",
"dX c #EEE269",
"fX c #E6E077",
"gX c #EEE472",
"hX c #EEE773",
"jX c #EDE477",
"kX c #EBE27A",
"lX c #EDE578",
"zX c #EEE87C",
"xX c #F3EE7D",
"cX c #EADC82",
"vX c #EADF8D",
"bX c #E7DC9E",
"nX c #EBE380",
"mX c #EEE982",
"MX c #EDE691",
"NX c #EEEA9B",
"BX c #E8DFA2",
"VX c #EBE5A7",
"CX c #EBE1A8",
"ZX c #EBE2AB",
"AX c #EEEAAC",
"SX c #EEEBAC",
"DX c #EBE3B7",
"FX c #EEEBB4",
"GX c #E7DECF",
"HX c #EBE6C5",
"JX c #EBE5CC",
"KX c #EEECCB",
"LX c #EEECCC",
"PX c #EBE6DA",
"IX c #EBE8E9",
/* pixels */
"    . . . . . . . . . . . . . . . . . . . . . . . . . . . .     ",
"  . X 7 7 7 7 X 7 7 7 7 7 7 X 7 7 7 7 7 X 7 7 X X X 7 7 7 7 .   ",
". X 7 7 7 7 7 7 X 7 7 7 7 X 7 7 7 7 7 X 7 7 7 7 X 7 7 7 7 7 7 . ",
". 7 7 7 7 7 7 7 7 X 7 7 7 X 7 7 7 7 7 X 7 7 7 7 X 7 7 7 7 7 7 . ",
". 7 7 7 7 7 7 7 7 X X X X 7 7 7 7 7 7 X X 7 7 X X 7 7 7 7 7 7 . ",
". 7 7 7 7 7 7 7 7 o o o o 7 7 7 7 7 o o o o o o X 7 7 7 7 7 7 . ",
". X 7 7 7 7 7 7 $ $ , R.4 E.E.E.E.E.5 5 W.> & o o 7 7 7 7 7 7 . ",
". X X X X X o $ $ $ a {.dXkXxXxXmXmXkXmX].`.r $ o 7 7 7 7 7 X . ",
". X 7 7 X o $ $ ; e / F.,X{ 8.8.8.8.r.$..X|.%.T.o o 7 7 7 X 7 . ",
". 7 7 7 7 o $ * O.b._ / |.5.@XsXsX9X<X5.$X<XwXfX# o o X X 7 7 . ",
". 7 7 7 7 o $ = 2.2.b.N.J.wXyXzXzXkXlXvXMXSX}.V.9 o o X 7 7 7 . ",
". X 7 7 X o $ = 2.g.1.uXNX-X#X;X;X#XoXeXLXx.d.d.9 o o X 7 7 7 . ",
". 7 X X X o o = 2.g._ rX7Xe.n n T c X.{.DXJ v >.9 o o X 7 7 7 . ",
". 7 7 7 7 o o + :.3._ 0XP.0.bXGXGXGX_.' qXR 3 K 9 7 7 7 X X 7 . ",
". 7 7 7 7 7 7 + Z Z P `.9.! $XPXIXCX/ ! cXE =.*.Q 7 7 7 7 7 X . ",
". 7 7 7 7 7 7 8 Z F ^ ].D.f ,.=XCXZ.g T iX! ;.S Q 7 7 7 7 7 7 . ",
". 7 7 7 7 7 7 8 G I.{ ].G.j /.H D ~.6.3 +XP =.A Q 7 7 7 7 7 7 . ",
". X 7 7 7 7 7 8 4.i.E `.G.^.6.2 3 3 q.7.+XU &.S 9 7 7 7 7 7 7 . ",
". 7 X X 7 7 7 @ &X8X{ ].gX6.N N M M B (.aXP -.S p $ $ 7 7 7 7 . ",
". 7 7 7 X o o < sX=XB.5XFXmXVXHXSXmXLXIXJXw.Y.u.s $ $ X X X 7 . ",
". 7 7 7 X o $ < 3XC.5X<XU.p.q.t.t.t.!._.pXCX#X<XQ.$ $ X 7 7 X . ",
". 7 7 7 X o $ , tXhX:X' | M.m h h h c.a.| A.jXS.i $ $ 7 7 7 7 . ",
". 7 7 X X o $ $ 6 ).' ! x.n.E c c c x.n.f./ K.u o $ $ 7 7 7 7 . ",
". 7 X 7 7 7 $ $ $ : ~ | k.c.<.c l P s.x.v.f.t & o o o X 7 7 X . ",
". X 7 7 7 7 7 $ $ $ : ..o.q 0 z z z z o.o.y $ $ o o X X X X X . ",
". 7 7 7 7 7 7 $ $ $ $ $ o o 7 7 7 7 7 o $ $ $ o 7 7 7 7 7 7 X . ",
". 7 7 7 7 7 7 X o o o o o o 7 7 7 7 7 o o o o 7 7 7 7 7 7 7 7 . ",
". 7 7 7 7 7 7 X X 7 7 X X 7 7 7 7 7 7 X X X X 7 7 7 7 7 7 7 7 . ",
". 7 7 7 7 7 7 X 7 7 7 7 X 7 7 7 7 7 X 7 7 7 X 7 7 7 7 7 7 7 7 . ",
". X 7 7 7 7 7 X 7 7 7 7 X 7 7 7 7 7 X 7 7 7 7 X 7 7 7 7 7 7 7 . ",
"  . X 7 7 7 X X X 7 7 X 7 7 7 7 7 X 7 7 7 7 7 7 X 7 7 7 7 7 .   ",
"    . . . . . . . . . . . . . . . . . . . . . . . . . . . .     "
};
