/* XPM */
static char *_1561e1f10a0426caa7a8c0b842c05aa9vhjRHtEDy0eRX5L[] = {
/* columns rows colors chars-per-pixel */
"32 32 141 2 ",
"   c #3D253B",
".  c #3E283F",
"X  c #3D2C42",
"o  c #3A354D",
"O  c #37394A",
"+  c #3B3A53",
"@  c #463347",
"#  c #523B40",
"$  c #344453",
"%  c #314D5A",
"&  c #32515C",
"*  c #3F4B63",
"=  c #384E69",
"-  c #315667",
";  c #3C566E",
":  c #315A6B",
">  c #315F72",
",  c #345B78",
"<  c #2F6279",
"1  c #316478",
"2  c #386A7D",
"3  c #4D4C55",
"4  c #5A4A50",
"5  c #5D5357",
"6  c #445C6D",
"7  c #5B596E",
"8  c #4A5B75",
"9  c #476875",
"0  c #5E6E7B",
"q  c #4C707F",
"w  c #66696D",
"e  c #636070",
"r  c #686D72",
"t  c #2F6D86",
"y  c #316E85",
"u  c #386E87",
"i  c #367089",
"p  c #3A778D",
"a  c #2F7896",
"s  c #2F7D9D",
"d  c #337794",
"f  c #357D96",
"g  c #397A97",
"h  c #4F7584",
"j  c #427991",
"k  c #6A7985",
"l  c #6E7C91",
"z  c #2F83A6",
"x  c #3484A4",
"c  c #3889A9",
"v  c #3E8CAC",
"b  c #3996AE",
"n  c #3591B3",
"m  c #3A92B5",
"M  c #369CBF",
"N  c #389BBC",
"B  c #478298",
"V  c #55879A",
"C  c #598C9E",
"Z  c #638395",
"A  c #638E9E",
"S  c #659198",
"D  c #448AA2",
"F  c #5087A9",
"G  c #5F91A2",
"H  c #4594B2",
"J  c #4297B8",
"K  c #489AB9",
"L  c #5696B0",
"P  c #6399AE",
"I  c #679EB6",
"U  c #6F9FB2",
"Y  c #5DA8BF",
"T  c #64A5BF",
"R  c #77A6B8",
"E  c #369DC3",
"W  c #399DC4",
"Q  c #39A1C4",
"!  c #39A3CB",
"~  c #3DAFDE",
"^  c #3BB2D1",
"/  c #3CBAEC",
"(  c #439FC3",
")  c #679EC9",
"_  c #47ABC9",
"`  c #5FB6CD",
"'  c #4BAFD3",
"]  c #48B0D9",
"[  c #64A5C1",
"{  c #79AEC3",
"}  c #67B1C8",
"|  c #6CB6C8",
" . c #7BADDA",
".. c #77B1D5",
"X. c #42B6E5",
"o. c #3FC7EC",
"O. c #4FC1D2",
"+. c #41CEEC",
"@. c #4BCFEC",
"#. c #55C1E9",
"$. c #59D1EC",
"%. c #6BC1EC",
"&. c #6DCFE8",
"*. c #78D0E7",
"=. c #59E0EC",
"-. c #66E0EC",
";. c #829BA2",
":. c #84AAAE",
">. c #83ABBB",
",. c #91A7B0",
"<. c #8BAFC3",
"1. c #82B7CB",
"2. c #84B9EC",
"3. c #89BBEC",
"4. c #8AC2C8",
"5. c #93C5D7",
"6. c #97CADC",
"7. c #9BD5DF",
"8. c #B1C1CB",
"9. c #B8CDD8",
"0. c #93CFE3",
"q. c #9EC5EC",
"w. c #86D7EB",
"e. c #93D9EC",
"r. c #9ADDE8",
"t. c #A1D4E6",
"y. c #A7D9EA",
"u. c #A8DBEC",
"i. c #B2DEEC",
"p. c #A7E6EB",
"a. c #A9E4EC",
"s. c #A9EAEC",
"d. c #B4E2EC",
"f. c #BDE5EC",
"g. c #B6EAEC",
"h. c #BDEAEC",
"j. c #C0CBD3",
"k. c #C9E7EC",
"l. c #DCE6EC",
"z. c #E0E7EC",
"x. c #ECEAEC",
/* pixels */
"# # #                                                       # # ",
"# # #                                                       # # ",
"# #                                 # # #                     # ",
"                                  # # # # #                     ",
"                      @ l <.<.<.>.r 4 # # #                     ",
"            # # # . 7 >.L E b % : i d 3 # #                     ",
"          # # # 5 ;.Z : s M f % : s y u 3 #                     ",
"        # # # # r S ; u d s s > s H L y.H O                     ",
"        # # # w 4.Z  .2.F d s t D 9.x.h.O.x +                   ",
"        # # # :.r.q.3. .F y I 8.j.x.x.d.=.O.,                   ",
"          # 6 } q.q.3.) j 0.y.k.z.x.x.d.+.-.,.@       # #       ",
"            = z ..q.%.3.5.u.u.u.i.l.x.a.o.$.h.e     # # #       ",
"            = z n ' @.u.u.u.u.u.u.u.i.u.$.r.r.8     # #         ",
"          o z c n ^ e.a.s.s.f.u.u.u.a.5._ w.#.]                 ",
"          o z E M ^ e.p.s.s.k.d.u.u.a.r.Y / #.] .               ",
"          o n ! Q ^ e.p.s.s.g.d.u.u.s.s.| ~ K _ .               ",
"          o M ! W N 0.a.s.s.g.u.u.u.s.s.} ] H (                 ",
"          o b M Q d V u.s.s.g.i.u.u.s.s.G J H H X               ",
"          # 6 c 0.P 2 5.u.s.g.i.u.u.a.7.h H K g                 ",
"#         # 0 _ *.I < G u.u.d.d.u.y.u.>.u X.( *               # ",
"#         # 4 _ @.D 1 V y.u.s.h.u.u.u.R m / v X               # ",
"          # # B &.A & 1 [ w.a.a.a.t.6.T M ] 9                   ",
"            # # k 9 % : a X.} 5.t.1.{ C f p # # # #             ",
"                X $ % % - ~ W g q U R ` ^ 3 # # # # #           ",
"                    O % % x ! / g g g x * # # # # # #           ",
"                      X $ : ^ o.o.v 6     # # # # # #           ",
"                            X X X X         # # # #             ",
"                          # #                                   ",
"#                         # #                                 # ",
"# #                                                         # # ",
"# # #                                                       # # ",
"# # #                                                       # # "
};
