/* XPM */
static char *_45775db2ac34fabd40809c3f865c016205ReDp5EDbcMsg1[] = {
/* columns rows colors chars-per-pixel */
"32 32 175 2 ",
"   c #0B0406",
".  c #0E0508",
"X  c #1A0406",
"o  c #11070C",
"O  c #1D090F",
"+  c #180C13",
"@  c #280606",
"#  c #230B0F",
"$  c #2F090F",
"%  c #32040A",
"&  c #370A15",
"*  c #261522",
"=  c #361928",
"-  c #341F32",
";  c #3D253B",
":  c #410606",
">  c #4E050A",
",  c #44090B",
"<  c #57040E",
"1  c #5D050B",
"2  c #490412",
"3  c #500F14",
"4  c #5B0814",
"5  c #60050C",
"6  c #70040F",
"7  c #680514",
"8  c #7E0715",
"9  c #71051D",
"0  c #7F081A",
"q  c #4F1D33",
"w  c #501E36",
"e  c #581A35",
"r  c #5E1A38",
"t  c #73062C",
"y  c #641427",
"u  c #6B1221",
"i  c #691F28",
"p  c #6F1130",
"a  c #641A3B",
"s  c #751F3A",
"d  c #472136",
"f  c #44233B",
"g  c #5E2238",
"h  c #56363B",
"j  c #6C222B",
"k  c #632631",
"l  c #7C223C",
"z  c #631E41",
"x  c #761B43",
"c  c #492942",
"v  c #572D47",
"b  c #592C46",
"n  c #523B40",
"m  c #5D3942",
"M  c #5B324D",
"N  c #742F45",
"B  c #6C314D",
"V  c #653D4B",
"C  c #77324F",
"Z  c #772E52",
"A  c #7E3E5A",
"S  c #890514",
"D  c #830618",
"F  c #85041D",
"G  c #8F0419",
"H  c #8A0B1E",
"J  c #94041E",
"K  c #890F22",
"L  c #890B29",
"P  c #930427",
"I  c #9A0522",
"U  c #9C042A",
"Y  c #970D28",
"T  c #9B0B28",
"R  c #881827",
"E  c #9C172D",
"W  c #98083A",
"Q  c #961633",
"!  c #AF0421",
"~  c #A10A27",
"^  c #A0052F",
"/  c #AA052F",
"(  c #B60426",
")  c #BA042B",
"_  c #A30530",
"`  c #B20531",
"'  c #B40830",
"]  c #95222C",
"[  c #8B2A36",
"{  c #972A3B",
"}  c #B42D3C",
"|  c #B82F3E",
" . c #C90428",
".. c #D9042C",
"X. c #C41A3F",
"o. c #891341",
"O. c #961A42",
"+. c #BC0B46",
"@. c #AB1548",
"#. c #A31E48",
"$. c #842D46",
"%. c #96234B",
"&. c #9F204A",
"*. c #98294C",
"=. c #8C324D",
"-. c #9E2D50",
";. c #943455",
":. c #933C5F",
">. c #9F3B5B",
",. c #B22247",
"<. c #B73746",
"1. c #B73B4A",
"2. c #A92E54",
"3. c #B02955",
"4. c #A13657",
"5. c #A93356",
"6. c #BF385D",
"7. c #BE3C6C",
"8. c #C20E47",
"9. c #CB0A4A",
"0. c #D70949",
"q. c #CB124A",
"w. c #DE0954",
"e. c #C31B55",
"r. c #CC1B54",
"t. c #DA1054",
"y. c #E00B54",
"u. c #C32444",
"i. c #C52159",
"p. c #D0295E",
"a. c #E11663",
"s. c #CE2D66",
"d. c #D62267",
"f. c #D03461",
"g. c #DE397A",
"h. c #90415B",
"j. c #B5404F",
"k. c #B54656",
"l. c #B14059",
"z. c #964063",
"x. c #974469",
"c. c #9B4D78",
"v. c #A64064",
"b. c #AC4369",
"n. c #B04068",
"m. c #AB4478",
"M. c #B54A73",
"N. c #B84D77",
"B. c #BD4D79",
"V. c #B16A7C",
"C. c #C64274",
"Z. c #C1517C",
"A. c #BA4481",
"S. c #CC4F81",
"D. c #C55382",
"F. c #CA5384",
"G. c #C55B86",
"H. c #CD5689",
"J. c #C35F88",
"K. c #CD5F8F",
"L. c #D2558B",
"P. c #D8568E",
"I. c #D2588D",
"U. c #CF5890",
"Y. c #D15D90",
"T. c #DD5B95",
"R. c #C9618C",
"E. c #CA6A93",
"W. c #CF6996",
"Q. c #BF879C",
"!. c #B28999",
"~. c #CA85A4",
"^. c #CC94B0",
"/. c #D3ACC3",
"(. c #D2B2C7",
/* pixels */
"n n n ; ; ; ; ; ; ; ; ; ; ; ; ; ; ; ; ; ; ; ; ; ; ; ; ; ; ; n n ",
"n n n ; ; ; ; ; ; ; ; ; ; ; ; ; ; ; ; ; ; ; ; ; ; ; ; ; ; ; n n ",
"n n ; ; ; ; ; ; ; ; ; ; ; ; ; ; ; ; n n n ; ; ; ; ; ; ; ; ; ; n ",
"; ; ; ; ; ; ; ; ; ; ; ; ; ; ; ; ; n n n n n ; ; ; ; ; ; ; ; ; ; ",
"; ; ; ; ; ; ; ; ; ; ; ; ; ; ; ; ; n n n n n ; ; ; ; ; ; ; ; ; ; ",
"; ; ; ; ; ; n n n ; ; c B v.b.z.:.h.h h n n ; ; ; ; ; ; ; ; ; ; ",
"; ; ; ; ; n n n n n v C l I +.    1 1 i n n ; ; ; ; ; ; ; ; ; ; ",
"; ; ; ; n n n n n x.B O 6 I P     8 5 1 j ; ; ; ; ; ; ; ; ; ; ; ",
"; ; ; ; n n n n V Z # & 8 6 S < 5 H { Q.e.y ; ; ; ; ; ; ; ; ; ; ",
"; ; ; ; n n n V m.k [ | ] 1 D 1 5 V.(./.d.T y ; ; ; ; ; ; ; ; ; ",
"; ; ; ; ; n n A A.k.1.| ] > R !.!.(.(./.a.d.L ; ; ; ; n n ; ; ; ",
"; ; ; ; ; ; d Q l.k.<.} 4 >.Z.E.^.(.(./.w.a.U.M ; ; n n n ; ; ; ",
"; ; ; ; ; ; d S E j.u.6.>.Z.Z.Z.Z.~.(./.w.w.T.c.; ; n n ; ; ; ; ",
"; ; ; ; ; ; q S J ~ t.C.Z.Z.Z.Z.Z.Z.J.G.s.g.P.%.f ; ; ; ; ; ; ; ",
"; ; ; ; ; ; 0 G I / s.Z.L.L.W.D.Z.Z.F.D.^ p.r.8.a ; ; ; ; ; ; ; ",
"; ; ; ; ; ; 0 I / / s.F.L.L.W.R.Z.Z.F.L.3.) q.8.a ; ; ; ; ; ; ; ",
"; ; ; ; ; ; F ` ` / s.F.L.L.I.R.Z.Z.F.L.7.) U _ a ; ; ; ; ; ; ; ",
"; ; ; ; ; ; Y ` ` I 2.Z.L.L.I.R.Z.Z.F.L.7.) U U r ; ; ; ; ; ; ; ",
"; ; ; ; ; n K ~ ' H 3 b.F.L.I.R.Z.Z.F.L.;.9 P P e ; ; ; ; ; ; ; ",
"n ; ; ; ; n h S 2.4.: $.Z.D.H.R.Z.Z.D.F.g 7 P L w ; ; ; ; ; ; n ",
"n ; ; ; ; n m ,.r.4.: , Z.Z.Z.K.D.Z.Z.N.% ( ) p ; ; ; ; ; ; ; n ",
"; ; ; ; ; n n *.y.@.@ , M.Z.H.Y.G.Z.Z.M.4 ..9.f ; ; ; ; ; ; ; ; ",
"; ; ; ; ; ; n N i.;.  % u f.S.F.F.B.n.-.F ) #.n n n ; ; ; ; ; ; ",
"; ; ; ; ; ; ; ; b =   X > ! X.=.Z.5.*.%.& O.m n n n n ; ; ; ; ; ",
"; ; ; ; ; ; ; ; ; + o   X J  .5 $ s l &.9.$.n n n n n ; ; ; ; ; ",
"; ; ; ; ; ; ; ; ; ; - o   2 F ..J 9 t o.x n n n n n n ; ; ; ; ; ",
"; ; ; ; ; ; ; ; ; ; ; - * . W 0.0.+.z f ; ; n n n n ; ; ; ; ; ; ",
"; ; ; ; ; ; ; ; ; ; ; ; ; n n ; ; ; ; ; ; ; ; ; ; ; ; ; ; ; ; ; ",
"n ; ; ; ; ; ; ; ; ; ; ; ; n n ; ; ; ; ; ; ; ; ; ; ; ; ; ; ; ; n ",
"n n ; ; ; ; ; ; ; ; ; ; ; ; ; ; ; ; ; ; ; ; ; ; ; ; ; ; ; ; n n ",
"n n n ; ; ; ; ; ; ; ; ; ; ; ; ; ; ; ; ; ; ; ; ; ; ; ; ; ; ; n n ",
"n n n ; ; ; ; ; ; ; ; ; ; ; ; ; ; ; ; ; ; ; ; ; ; ; ; ; ; ; n n "
};
